M48
;DRILL file {KiCad 4.0.2-stable} date 6/3/2016 9:25:30 PM
;FORMAT={-:-/ absolute / inch / decimal}
FMAT,2
INCH,TZ
T1C0.013
T2C0.031
T3C0.040
T4C0.059
T5C0.087
%
G90
G05
M72
T1
X3.975Y-5.15
X3.975Y-5.325
X4.Y-4.15
X4.Y-5.5
X4.025Y-5.15
X4.025Y-5.325
X4.05Y-4.15
X4.05Y-5.5
X4.075Y-5.15
X4.075Y-5.325
X4.1Y-4.15
X4.1Y-5.5
X4.125Y-5.15
X4.15Y-4.15
X4.175Y-3.825
X4.175Y-4.
X4.175Y-4.425
X4.175Y-5.325
X4.2Y-5.5
X4.225Y-3.825
X4.225Y-5.325
X4.25Y-4.
X4.25Y-5.5
X4.275Y-3.825
X4.275Y-5.325
X4.3Y-4.
X4.3Y-5.5
X4.325Y-4.75
X4.325Y-4.8
X4.325Y-4.85
X4.325Y-4.9
X4.325Y-4.95
X4.325Y-5.
X4.325Y-5.05
X4.35Y-4.275
X4.375Y-3.825
X4.375Y-4.
X4.375Y-5.325
X4.375Y-5.5
X4.4Y-4.275
X4.4Y-4.7
X4.425Y-3.825
X4.425Y-5.325
X4.425Y-5.5
X4.45Y-4.
X4.45Y-4.275
X4.45Y-4.675
X4.475Y-3.825
X4.475Y-5.325
X4.475Y-5.5
X4.5Y-4.
X4.5Y-4.275
X4.5Y-4.625
X4.55Y-4.275
X4.575Y-3.825
X4.575Y-4.
X4.575Y-4.7
X4.575Y-5.325
X4.575Y-5.5
X4.6Y-4.275
X4.6Y-4.65
X4.625Y-3.825
X4.625Y-5.325
X4.625Y-5.5
X4.65Y-4.
X4.65Y-4.4
X4.675Y-3.825
X4.675Y-4.475
X4.675Y-4.75
X4.675Y-4.8
X4.675Y-5.325
X4.675Y-5.5
X4.7Y-4.
X4.75Y-4.425
X4.775Y-3.825
X4.775Y-4.
X4.775Y-5.325
X4.775Y-5.5
X4.825Y-3.825
X4.825Y-5.325
X4.825Y-5.5
X4.85Y-4.
X4.875Y-3.825
X4.875Y-4.875
X4.875Y-5.325
X4.875Y-5.5
X4.9Y-4.
X4.9Y-4.275
X4.9Y-4.525
X4.9Y-4.575
X4.9Y-4.65
X4.975Y-3.825
X4.975Y-4.
X4.975Y-5.325
X4.975Y-5.5
X5.025Y-3.825
X5.025Y-5.325
X5.025Y-5.5
X5.05Y-4.
X5.075Y-3.825
X5.075Y-5.325
X5.075Y-5.5
X5.1Y-4.
X5.125Y-4.275
X5.125Y-4.325
X5.125Y-4.375
X5.125Y-4.425
X5.125Y-4.475
X5.125Y-4.525
X5.125Y-4.575
X5.125Y-4.9
X5.175Y-3.825
X5.175Y-4.
X5.175Y-5.325
X5.175Y-5.5
X5.225Y-3.825
X5.225Y-5.325
X5.225Y-5.5
X5.25Y-4.
X5.275Y-3.825
X5.275Y-5.325
X5.275Y-5.5
X5.3Y-4.
X5.375Y-3.825
X5.375Y-4.
X5.425Y-3.825
X5.425Y-4.
X5.475Y-3.825
X5.475Y-4.
T2
X5.025Y-4.7
X5.025Y-4.7984
T3
X5.25Y-4.7
X5.25Y-4.8
X5.25Y-4.9
X5.25Y-5.
X5.25Y-5.1
X5.25Y-5.2
X5.45Y-4.7
X5.45Y-4.8
X5.45Y-4.9
X5.45Y-5.
X5.45Y-5.1
X5.45Y-5.2
T4
X4.0354Y-3.6199
X4.0354Y-5.7087
X4.2323Y-3.6199
X4.2323Y-5.7087
X4.4291Y-3.6199
X4.4291Y-5.7087
X4.626Y-3.6199
X4.626Y-5.7087
X4.8228Y-3.6199
X4.8228Y-5.7087
X5.0197Y-3.6199
X5.0197Y-5.7087
X5.2165Y-3.6199
X5.2165Y-5.7087
X5.4134Y-3.6199
X5.4134Y-5.7087
T5
X4.025Y-4.45
T0
M30
